<?xml version="1.0" encoding="UTF-8"?>
<svg width="48px" height="48px" viewBox="0 0 48 48" version="1.1" xmlns="http://www.w3.org/2000/svg" xmlns:xlink="http://www.w3.org/1999/xlink">
    <title>快手</title>
    <desc>快手版权所有</desc>
    <defs>
        <linearGradient x1="50%" y1="0%" x2="50%" y2="100%" id="linearGradient-1">
            <stop stop-color="#FF5000" offset="0%"></stop>
            <stop stop-color="#FF5000" offset="100%"></stop>
        </linearGradient>
        <polygon id="path-2" points="-5.68434189e-15 -1.13686838e-14 41.2965517 -1.13686838e-14 41.2965517 41.3793103 -5.68426559e-15 41.3793103 -5.68426559e-15 -1.13686838e-14"></polygon>
    </defs>
    <g stroke="none" stroke-width="1" fill="none" fill-rule="evenodd">
        <g transform="translate(-240.000000, -36.000000)">
            <g>
                <g transform="translate(240.000000, 36.000000)">
                    <g>
                        <path d="M36.5625,8.18186099e-16 C43.5,8.18186099e-16 48,4.5 48,11.4375 L48,36.5625 C48,43.5 43.5,48 36.5625,48 L11.4375,48 C4.5,48 0,43.5 0,36.5625 L0,11.4375 C0,4.5 4.5,8.18186102e-16 11.4375,8.18186102e-16 L36.5625,8.18186099e-16 Z" id="App-Icon-Shape" fill="url(#linearGradient-1)"></path>
                        <g id="Page-1" transform="translate(4.084914, 2.938578)">
                            <mask id="mask-3" fill="white">
                                <use xlink:href="#path-2"></use>
                            </mask>
                            <g></g>
                            <path d="M12.4444877,37.1213641 C11.9476446,37.0822052 10.3313024,36.8702518 8.99238124,36.5007962 C7.65289224,36.1319081 6.3766032,35.5858138 6.3766032,35.5858138 C5.87521754,35.3202144 5.69919313,34.8991145 5.65036055,34.4746094 C5.65036055,34.4746094 5.50102371,33.1392346 5.50102371,30.5155891 C5.50102371,28.4832995 5.52713678,27.5333982 5.57426589,27.1934537 C5.62480194,26.8353485 5.78379173,26.5203748 6.23918392,26.5425081 C6.69457611,26.5652089 7.65800263,26.5084695 9.12354782,26.7825817 C10.8502905,27.1055007 12.1162873,27.3503702 12.5137618,27.4922502 C12.902719,27.6312927 13.2269446,27.9235655 13.2757772,28.4689524 C13.2757772,28.4689524 13.4557763,29.9439371 13.4557763,32.155563 C13.4557763,33.9636821 13.3495938,35.7354799 13.2916761,36.3115128 C13.2377332,36.8449818 12.9407629,37.1599554 12.4444877,37.1213641 Z M19.9150862,32.8515625 L19.9150862,31.0457135 C19.9150862,30.7091741 19.7873266,30.4844361 19.5425958,30.2500503 L15.1011977,25.7804017 C14.5850486,25.2401226 13.9280801,24.8411559 13.1808281,24.6839529 C13.1808281,24.6839529 11.47112,24.2798785 8.94488578,23.8570761 C6.41865155,23.4342736 5.71052892,23.520537 5.71052892,23.520537 C3.50227427,23.4121407 3.37848936,25.8933386 3.35236961,26.1203466 C3.28650241,26.694677 3.13923985,28.3020015 3.13923985,30.4250943 C3.13923985,32.9306956 3.22346763,34.4148593 3.35236293,35.4761219 C3.54826106,37.0958243 4.76964336,37.8449508 5.34314225,38.1326835 C5.48850435,38.2053261 7.19428792,38.8284628 8.77226161,39.3142601 C9.83578975,39.6422867 11.522785,40.1042481 12.3211409,40.2302375 C12.5834741,40.272234 14.1358958,40.5139976 14.8644097,39.5497809 L19.6550243,33.6778718 C19.8531938,33.3912741 19.9150862,33.2902555 19.9150862,32.8515625 L19.9150862,32.8515625 Z M33.5916937,22.2484889 L30.0115028,21.9309494 C29.3335249,21.8622795 28.6515722,21.8475239 27.9713231,21.8866828 L17.809781,22.8084358 C17.809781,22.8084358 17.097166,22.9168321 16.6911742,23.4576788 C16.3771694,23.8759411 16.2529082,24.3736269 16.2529082,24.3736269 C16.3255892,24.4405943 16.395999,24.5098317 16.4647053,24.5813393 L20.7624096,28.9674257 C21.2371077,29.4327922 21.5232893,29.8885109 21.5232893,30.5661299 L21.5232893,32.8878547 C21.5232893,33.3208726 21.4824062,33.6664923 21.2143949,34.0325428 L18.8705615,37.375613 L20.9389997,38.3207998 C21.8083331,38.6068299 22.73672,38.6845802 23.6440974,38.5466728 L33.3751122,36.3028938 C33.3751122,36.3028938 35.1103723,35.8681734 35.1103723,34.1815036 L35.0999169,27.83229 C35.0999169,27.7165159 34.9863528,27.6296854 34.865407,27.6540887 L28.3744757,28.8031214 C28.139398,28.8507931 27.9713231,29.04602 27.9713231,29.271893 L27.9713231,32.1758935 C27.9713231,32.3501221 28.1439405,32.4783817 28.3239397,32.4380878 L30.5711116,32.0408237 C30.6630986,32.020393 30.7511108,32.0867928 30.7494073,32.1758935 L30.7352118,33.094141 C30.7323727,33.2933406 30.5847393,33.4652992 30.3786204,33.5101333 L27.723705,33.9732355 C27.723705,33.9732355 26.3206201,34.2490503 26.3206201,32.6480761 L26.3206201,29.063619 C26.3206201,27.4461867 27.4596684,27.2651478 27.4596684,27.2651478 L34.7887512,25.9997676 C34.9693182,25.9657164 35.0999169,25.8158911 35.0999169,25.6427974 L35.0999169,24.0792795 C35.0999169,22.4476592 33.5916937,22.2484889 33.5916937,22.2484889 L33.5916937,22.2484889 Z M17.4498518,5.98512033 C20.0283256,6.09465171 21.6862013,8.91683036 21.5521956,11.8900682 C21.4034266,14.8547933 19.5260273,17.112207 17.0418118,17.0100534 C14.4639058,16.900522 12.5402421,14.2559678 12.67368,11.2832974 C12.822449,8.31857233 14.9656363,5.88296671 17.4498518,5.98512033 Z M27.9563622,13.1957507 C28.0574343,11.1708389 29.3087862,8.98768873 31.3234195,9.16077137 C33.0481591,9.30894846 34.3326772,11.4531486 34.2412581,13.423011 C34.1407538,15.4473552 32.4323034,17.1162804 30.7294091,17.049313 C29.095789,16.9778055 27.8655109,15.165613 27.9563622,13.1957507 L27.9563622,13.1957507 Z M29.8739914,20.1811987 C33.8816698,19.8304713 36.6985418,17.2793085 36.6860497,13.3707974 C36.6735577,9.3697806 33.6804117,5.95192022 30.0083154,5.91389637 C27.8534359,5.9683783 25.9048873,7.40346485 24.6465966,9.086162 C23.6807336,4.81273553 19.9649526,1.09455657 15.685856,1.1064745 C10.587394,1.1206625 6.32747867,6.06125434 6.34451329,11.4907193 C6.36154791,16.9718286 10.6498543,21.0756104 15.685856,21.0614224 C16.0305231,21.0602874 29.9137389,20.1766586 29.8739914,20.1811987 Z" id="Fill-1" fill="#FFFFFF" mask="url(#mask-3)"></path>
                        </g>
                    </g>
                </g>
            </g>
        </g>
    </g>
</svg>
